<?xml version="1.0" encoding="UTF-8" standalone="no"?>
<svg
   xmlns:dc="http://purl.org/dc/elements/1.1/"
   xmlns:cc="http://creativecommons.org/ns#"
   xmlns:rdf="http://www.w3.org/1999/02/22-rdf-syntax-ns#"
   xmlns:svg="http://www.w3.org/2000/svg"
   xmlns="http://www.w3.org/2000/svg"
   xmlns:sodipodi="http://sodipodi.sourceforge.net/DTD/sodipodi-0.dtd"
   xmlns:inkscape="http://www.inkscape.org/namespaces/inkscape"
   version="1.1"
   x="0px"
   y="0px"
   viewBox="0 0 85 49"
   enable-background="new 0 0 100 100"
   xml:space="preserve"
   id="svg3739"
   sodipodi:docname="sub.svg"
   inkscape:version="0.92.2 (5c3e80d, 2017-08-06)"
   width="85"
   height="49"><metadata
     id="metadata3745"><rdf:RDF><cc:Work
         rdf:about=""><dc:format>image/svg+xml</dc:format><dc:type
           rdf:resource="http://purl.org/dc/dcmitype/StillImage" /><dc:title></dc:title></cc:Work></rdf:RDF></metadata><defs
     id="defs3743" /><sodipodi:namedview
     pagecolor="#ffffff"
     bordercolor="#666666"
     borderopacity="1"
     objecttolerance="10"
     gridtolerance="10"
     guidetolerance="10"
     inkscape:pageopacity="0"
     inkscape:pageshadow="2"
     inkscape:window-width="1920"
     inkscape:window-height="1017"
     id="namedview3741"
     showgrid="false"
     inkscape:zoom="6.784"
     inkscape:cx="13.17217"
     inkscape:cy="33.018868"
     inkscape:window-x="-8"
     inkscape:window-y="-8"
     inkscape:window-maximized="1"
     inkscape:current-layer="svg3739" /><g
     id="g3733"
     transform="matrix(-1,0,0,1,92.661911,-25.292453)"
     style="fill:#f9f9f9;fill-opacity:1"><path
       d="m 88.9,53.8 c 0,0 0.1,2.5 0.1,3 0,0.5 1,0.7 1.6,0.9 0.6,0.2 1.3,1 1.4,1.5 0.1,0.4 0,2.8 0,3.3 0,0.5 -0.3,1.4 -1.4,1.6 -1,0.2 -2.2,0 -2.3,-0.8 -0.1,-0.8 0,-7.5 0,-9.1 0,-1.5 0.6,-1.1 0.6,-0.4 z"
       id="path3723"
       inkscape:connector-curvature="0"
       style="fill:#f9f9f9;fill-opacity:1" /><path
       d="m 35.7,37 c 0,-1.8 0,-5.7 0,-6.6 0,-1.1 -0.1,-1.4 -0.4,-1.5 -0.2,-0.1 -0.7,0 -0.7,0 0,0 -0.2,0.4 -0.5,0 -0.3,-0.4 -0.4,-2.7 0,-3 0.4,-0.3 0.7,0.1 0.7,0.1 2.1,0 3,1.3 3,2.4 0,1 0.2,6.3 0,8.5 z"
       id="path3725"
       inkscape:connector-curvature="0"
       style="fill:#f9f9f9;fill-opacity:1" /><path
       d="m 78.8,61.9 h 0.6 c 0,0 -0.1,-1.8 0,-3.1 0.1,-1.1 2.1,-1 1.9,0.4 -0.2,1.3 -0.5,3 -0.5,3 0,0 1.5,0.1 1.5,0.9 0,0.8 -1,0.8 -1.6,0.9 0.1,1.5 0.5,2.3 0.4,3.2 0,0.6 -0.5,1.3 -1.2,0.5 -0.6,-0.8 -0.5,-3.5 -0.5,-3.5 l -0.6,-0.1 z"
       id="path3727"
       inkscape:connector-curvature="0"
       style="fill:#f9f9f9;fill-opacity:1" /><rect
       x="75.199997"
       y="62.599998"
       transform="matrix(-1,-0.00268999,0.00268999,-1,154.6304,126.1288)"
       width="4.3000002"
       height="0.69999999"
       id="rect3729"
       style="fill:#f9f9f9;fill-opacity:1" /><path
       d="m 8,56.3 c 0.3,7 7.4,12.3 13.7,13.5 2.1,0.4 4.9,0.7 8,0.9 0.3,0.2 0.4,0.4 0.4,0.6 0,0.4 0.1,1.1 0.1,1.6 0,0.5 0.7,0.9 1.2,0.9 0.5,0 5.5,0.3 8.1,0.3 2.6,0 5.8,-0.3 7.1,-0.3 0.8,0 1.2,-0.1 1.5,-0.5 0.3,-0.4 0.4,-1.3 0.7,-1.9 0.1,-0.2 0.2,-0.4 0.2,-0.6 2.4,-0.1 4.5,-0.3 5.9,-0.5 5.1,-0.7 6.3,-1.3 7.3,-2.4 0.9,-1.1 1.5,-1.5 3.1,-1.6 2.3,-0.1 6.6,0.3 8.7,-0.6 2.2,-0.9 2.8,-2.7 4.1,-7 0.3,-0.9 0.8,-1.9 2,-2 3.2,-0.4 4,-0.8 4.8,-0.9 1.2,-0.1 4.7,-1.1 5.8,-1.3 1.1,-0.3 1.1,-1.3 -0.1,-1.9 -0.7,-0.3 -3.4,-0.9 -6.3,-1.5 0.1,-0.9 0.6,-5.8 0.6,-6.2 0,-0.5 -0.1,-0.7 -0.7,-0.7 -0.7,0 -1.9,0 -3,0 -1.1,0 -0.8,0.1 -1.2,0.5 -0.4,0.4 -1.8,3.8 -2.6,5.2 C 72.8,49.2 71.3,49 67.8,48.2 66.9,48 64.7,44.4 52.5,43.4 51.5,43.1 51,42.5 50.8,42 c -0.3,-0.7 -1.9,-5.1 -2,-5.8 -0.1,-0.7 -0.5,-1.3 -1.5,-1.6 -0.1,0 -0.2,0 -0.3,-0.1 v -1.4 c 0.1,0 0.1,0 0.1,0 0,0 0,0 0,0 0.1,0 0.2,-0.1 0.2,-0.2 0,-0.1 -0.1,-0.2 -0.2,-0.2 -0.9,0 -13.1,-0.3 -14.8,-0.3 0,0 0,0 0,0 -0.1,0 -0.2,0.1 -0.2,0.2 0,0.1 0.1,0.2 0.2,0.2 v 0 c 0,0 0,0 0,0 v 1.3 c 0,0 0,0 -0.1,0 -0.8,0 -1.9,0.9 -2.2,2.1 -0.3,1.2 -0.7,4.7 -0.7,5.4 0,0.7 -0.1,1.3 -1.2,1.6 0,0 0,0 0,0 -2.8,0.2 -5.2,0.5 -7.2,0.9 -3.8,0.7 -13.3,4 -12.9,12.2 z m 40.4,-1.5 c 0,-2.3 1.9,-4.2 4.2,-4.2 2.3,0 4.2,1.9 4.2,4.2 0,2.3 -1.9,4.2 -4.2,4.2 -2.3,0 -4.2,-1.9 -4.2,-4.2 z M 33.8,34 c -0.5,0 -0.9,0 -1.2,0.1 v -1.3 c 0.3,0 0.7,0 1.2,0 z m 1.6,-0.1 c -0.4,0 -0.8,0 -1.2,0 v -1.2 c 0.4,0 0.8,0 1.2,0 z m 1.6,0 c -0.4,0 -0.8,0 -1.2,0 v -1.1 c 0.4,0 0.8,0 1.2,0 z m 1.6,0 c -0.4,0 -0.8,0 -1.2,0 v -1.1 c 0.4,0 0.8,0 1.2,0 z m 1.5,0.1 c -0.3,0 -0.7,0 -1,0 -0.1,0 -0.1,0 -0.2,0 v -1.1 c 0.4,0 0.8,0 1.2,0 z m 5.2,-1 c 0.5,0 0.9,0 1.2,0 v 1.4 c -0.3,0 -0.7,-0.1 -1.2,-0.1 z m -1.6,-0.1 c 0.4,0 0.8,0 1.2,0 v 1.3 c -0.4,0 -0.8,0 -1.2,-0.1 z m -1.6,0 c 0.4,0 0.8,0 1.2,0 v 1.2 c -0.4,0 -0.8,0 -1.2,-0.1 z m -1.6,0 c 0.4,0 0.8,0 1.2,0 v 1.2 c -0.4,0 -0.8,0 -1.2,-0.1 z M 32,54.7 c 0,-2.3 1.9,-4.2 4.2,-4.2 2.3,0 4.2,1.9 4.2,4.2 0,2.3 -1.9,4.2 -4.2,4.2 C 33.9,59 32,57.1 32,54.7 Z m -14.7,0 c 0,-2.3 1.9,-4.2 4.2,-4.2 2.3,0 4.2,1.9 4.2,4.2 0,2.3 -1.9,4.2 -4.2,4.2 -2.3,0 -4.2,-1.9 -4.2,-4.2 z"
       id="path3731"
       inkscape:connector-curvature="0"
       style="fill:#f9f9f9;fill-opacity:1" /></g><text
     xml:space="preserve"
     style="font-style:normal;font-weight:normal;font-size:40px;line-height:1.25;font-family:sans-serif;letter-spacing:0px;word-spacing:0px;fill:#000000;fill-opacity:1;stroke:none"
     x="22.995283"
     y="19.518867"
     id="text4556"><tspan
       sodipodi:role="line"
       id="tspan4554"
       x="22.995283"
       y="56.012081" /></text>
<text
     xml:space="preserve"
     style="font-style:normal;font-weight:normal;font-size:12px;line-height:1.25;font-family:sans-serif;letter-spacing:0px;word-spacing:0px;fill:#000000;fill-opacity:1;stroke:none"
     x="40.094341"
     y="30.721703"
     id="text4560"><tspan
       sodipodi:role="line"
       id="tspan4558"
       x="40.094341"
       y="41.669666" /></text>
<text
     xml:space="preserve"
     style="font-style:normal;font-weight:normal;font-size:40px;line-height:1.25;font-family:sans-serif;letter-spacing:0px;word-spacing:0px;fill:#000000;fill-opacity:1;stroke:none"
     x="53.213444"
     y="1.5353785"
     id="text4564"><tspan
       sodipodi:role="line"
       id="tspan4562"
       x="53.213444"
       y="38.028591" /></text>
<text
     xml:space="preserve"
     style="font-style:normal;font-variant:normal;font-weight:normal;font-stretch:normal;font-size:30.38656807px;line-height:1.25;font-family:'Bradley Hand ITC';-inkscape-font-specification:'Bradley Hand ITC';letter-spacing:0px;word-spacing:0px;fill:#000000;fill-opacity:1;stroke:none;stroke-width:0.75966418;"
     x="35.263874"
     y="41.920906"
     id="text4568"
     transform="scale(1.2376637,0.80797392)"><tspan
       sodipodi:role="line"
       id="tspan4566"
       x="35.263874"
       y="41.920906"
       style="font-style:normal;font-variant:normal;font-weight:normal;font-stretch:normal;font-family:'Bradley Hand ITC';-inkscape-font-specification:'Bradley Hand ITC';stroke-width:0.75966418;fill:#000000;fill-opacity:1;">J</tspan></text>
<text
     xml:space="preserve"
     style="font-style:normal;font-variant:normal;font-weight:normal;font-stretch:normal;font-size:32px;line-height:1.25;font-family:'Bradley Hand ITC';-inkscape-font-specification:'Bradley Hand ITC';letter-spacing:0px;word-spacing:0px;fill:#030000;fill-opacity:1;stroke:none;"
     x="60.288918"
     y="37.797173"
     id="text4580"><tspan
       sodipodi:role="line"
       id="tspan4578"
       x="60.288918"
       y="37.797173">L</tspan></text>
<text
     xml:space="preserve"
     style="font-style:normal;font-weight:normal;font-size:18.66666603px;line-height:1.25;font-family:sans-serif;letter-spacing:0px;word-spacing:0px;fill:#000000;fill-opacity:1;stroke:none"
     x="23.732311"
     y="24.972878"
     id="text4584"><tspan
       sodipodi:role="line"
       id="tspan4582"
       x="23.732311"
       y="42.003044"></tspan></text>
</svg>