<?xml version="1.0" encoding="UTF-8" standalone="no"?>
<svg
   xmlns:dc="http://purl.org/dc/elements/1.1/"
   xmlns:cc="http://creativecommons.org/ns#"
   xmlns:rdf="http://www.w3.org/1999/02/22-rdf-syntax-ns#"
   xmlns:svg="http://www.w3.org/2000/svg"
   xmlns="http://www.w3.org/2000/svg"
   xmlns:sodipodi="http://sodipodi.sourceforge.net/DTD/sodipodi-0.dtd"
   xmlns:inkscape="http://www.inkscape.org/namespaces/inkscape"
   version="1.1"
   x="0px"
   y="0px"
   viewBox="0 0 85 49"
   enable-background="new 0 0 100 100"
   xml:space="preserve"
   id="svg3739"
   sodipodi:docname="sub2.svg"
   inkscape:version="0.92.2 (5c3e80d, 2017-08-06)"
   width="85"
   height="49"><metadata
     id="metadata3745"><rdf:RDF><cc:Work
         rdf:about=""><dc:format>image/svg+xml</dc:format><dc:type
           rdf:resource="http://purl.org/dc/dcmitype/StillImage" /><dc:title /></cc:Work></rdf:RDF></metadata><defs
     id="defs3743" /><sodipodi:namedview
     pagecolor="#ffffff"
     bordercolor="#666666"
     borderopacity="1"
     objecttolerance="10"
     gridtolerance="10"
     guidetolerance="10"
     inkscape:pageopacity="0"
     inkscape:pageshadow="2"
     inkscape:window-width="1920"
     inkscape:window-height="1017"
     id="namedview3741"
     showgrid="false"
     inkscape:zoom="6.784"
     inkscape:cx="13.17217"
     inkscape:cy="33.018868"
     inkscape:window-x="-8"
     inkscape:window-y="-8"
     inkscape:window-maximized="1"
     inkscape:current-layer="svg3739" /><g
     id="g3733"
     transform="matrix(-1,0,0,1,92.661911,-25.292453)"
     style="fill:#f9f9f9;fill-opacity:1"><path
       d="m 88.9,53.8 c 0,0 0.1,2.5 0.1,3 0,0.5 1,0.7 1.6,0.9 0.6,0.2 1.3,1 1.4,1.5 0.1,0.4 0,2.8 0,3.3 0,0.5 -0.3,1.4 -1.4,1.6 -1,0.2 -2.2,0 -2.3,-0.8 -0.1,-0.8 0,-7.5 0,-9.1 0,-1.5 0.6,-1.1 0.6,-0.4 z"
       id="path3723"
       inkscape:connector-curvature="0"
       style="fill:#f9f9f9;fill-opacity:1" /><path
       d="m 35.7,37 c 0,-1.8 0,-5.7 0,-6.6 0,-1.1 -0.1,-1.4 -0.4,-1.5 -0.2,-0.1 -0.7,0 -0.7,0 0,0 -0.2,0.4 -0.5,0 -0.3,-0.4 -0.4,-2.7 0,-3 0.4,-0.3 0.7,0.1 0.7,0.1 2.1,0 3,1.3 3,2.4 0,1 0.2,6.3 0,8.5 z"
       id="path3725"
       inkscape:connector-curvature="0"
       style="fill:#f9f9f9;fill-opacity:1" /><path
       d="m 78.8,61.9 h 0.6 c 0,0 -0.1,-1.8 0,-3.1 0.1,-1.1 2.1,-1 1.9,0.4 -0.2,1.3 -0.5,3 -0.5,3 0,0 1.5,0.1 1.5,0.9 0,0.8 -1,0.8 -1.6,0.9 0.1,1.5 0.5,2.3 0.4,3.2 0,0.6 -0.5,1.3 -1.2,0.5 -0.6,-0.8 -0.5,-3.5 -0.5,-3.5 l -0.6,-0.1 z"
       id="path3727"
       inkscape:connector-curvature="0"
       style="fill:#f9f9f9;fill-opacity:1" /><rect
       x="75.199997"
       y="62.599998"
       transform="matrix(-1,-0.00268999,0.00268999,-1,154.6304,126.1288)"
       width="4.3000002"
       height="0.69999999"
       id="rect3729"
       style="fill:#f9f9f9;fill-opacity:1" /><path
       d="m 8,56.3 c 0.3,7 7.4,12.3 13.7,13.5 2.1,0.4 4.9,0.7 8,0.9 0.3,0.2 0.4,0.4 0.4,0.6 0,0.4 0.1,1.1 0.1,1.6 0,0.5 0.7,0.9 1.2,0.9 0.5,0 5.5,0.3 8.1,0.3 2.6,0 5.8,-0.3 7.1,-0.3 0.8,0 1.2,-0.1 1.5,-0.5 0.3,-0.4 0.4,-1.3 0.7,-1.9 0.1,-0.2 0.2,-0.4 0.2,-0.6 2.4,-0.1 4.5,-0.3 5.9,-0.5 5.1,-0.7 6.3,-1.3 7.3,-2.4 0.9,-1.1 1.5,-1.5 3.1,-1.6 2.3,-0.1 6.6,0.3 8.7,-0.6 2.2,-0.9 2.8,-2.7 4.1,-7 0.3,-0.9 0.8,-1.9 2,-2 3.2,-0.4 4,-0.8 4.8,-0.9 1.2,-0.1 4.7,-1.1 5.8,-1.3 1.1,-0.3 1.1,-1.3 -0.1,-1.9 -0.7,-0.3 -3.4,-0.9 -6.3,-1.5 0.1,-0.9 0.6,-5.8 0.6,-6.2 0,-0.5 -0.1,-0.7 -0.7,-0.7 -0.7,0 -1.9,0 -3,0 -1.1,0 -0.8,0.1 -1.2,0.5 -0.4,0.4 -1.8,3.8 -2.6,5.2 C 72.8,49.2 71.3,49 67.8,48.2 66.9,48 64.7,44.4 52.5,43.4 51.5,43.1 51,42.5 50.8,42 c -0.3,-0.7 -1.9,-5.1 -2,-5.8 -0.1,-0.7 -0.5,-1.3 -1.5,-1.6 -0.1,0 -0.2,0 -0.3,-0.1 v -1.4 c 0.1,0 0.1,0 0.1,0 0,0 0,0 0,0 0.1,0 0.2,-0.1 0.2,-0.2 0,-0.1 -0.1,-0.2 -0.2,-0.2 -0.9,0 -13.1,-0.3 -14.8,-0.3 0,0 0,0 0,0 -0.1,0 -0.2,0.1 -0.2,0.2 0,0.1 0.1,0.2 0.2,0.2 v 0 c 0,0 0,0 0,0 v 1.3 c 0,0 0,0 -0.1,0 -0.8,0 -1.9,0.9 -2.2,2.1 -0.3,1.2 -0.7,4.7 -0.7,5.4 0,0.7 -0.1,1.3 -1.2,1.6 0,0 0,0 0,0 -2.8,0.2 -5.2,0.5 -7.2,0.9 -3.8,0.7 -13.3,4 -12.9,12.2 z m 40.4,-1.5 c 0,-2.3 1.9,-4.2 4.2,-4.2 2.3,0 4.2,1.9 4.2,4.2 0,2.3 -1.9,4.2 -4.2,4.2 -2.3,0 -4.2,-1.9 -4.2,-4.2 z M 33.8,34 c -0.5,0 -0.9,0 -1.2,0.1 v -1.3 c 0.3,0 0.7,0 1.2,0 z m 1.6,-0.1 c -0.4,0 -0.8,0 -1.2,0 v -1.2 c 0.4,0 0.8,0 1.2,0 z m 1.6,0 c -0.4,0 -0.8,0 -1.2,0 v -1.1 c 0.4,0 0.8,0 1.2,0 z m 1.6,0 c -0.4,0 -0.8,0 -1.2,0 v -1.1 c 0.4,0 0.8,0 1.2,0 z m 1.5,0.1 c -0.3,0 -0.7,0 -1,0 -0.1,0 -0.1,0 -0.2,0 v -1.1 c 0.4,0 0.8,0 1.2,0 z m 5.2,-1 c 0.5,0 0.9,0 1.2,0 v 1.4 c -0.3,0 -0.7,-0.1 -1.2,-0.1 z m -1.6,-0.1 c 0.4,0 0.8,0 1.2,0 v 1.3 c -0.4,0 -0.8,0 -1.2,-0.1 z m -1.6,0 c 0.4,0 0.8,0 1.2,0 v 1.2 c -0.4,0 -0.8,0 -1.2,-0.1 z m -1.6,0 c 0.4,0 0.8,0 1.2,0 v 1.2 c -0.4,0 -0.8,0 -1.2,-0.1 z M 32,54.7 c 0,-2.3 1.9,-4.2 4.2,-4.2 2.3,0 4.2,1.9 4.2,4.2 0,2.3 -1.9,4.2 -4.2,4.2 C 33.9,59 32,57.1 32,54.7 Z m -14.7,0 c 0,-2.3 1.9,-4.2 4.2,-4.2 2.3,0 4.2,1.9 4.2,4.2 0,2.3 -1.9,4.2 -4.2,4.2 -2.3,0 -4.2,-1.9 -4.2,-4.2 z"
       id="path3731"
       inkscape:connector-curvature="0"
       style="fill:#f9f9f9;fill-opacity:1" /></g><text
     xml:space="preserve"
     style="font-style:normal;font-weight:normal;font-size:40px;line-height:1.25;font-family:sans-serif;letter-spacing:0px;word-spacing:0px;fill:#000000;fill-opacity:1;stroke:none"
     x="22.995283"
     y="19.518867"
     id="text4556"><tspan
       sodipodi:role="line"
       id="tspan4554"
       x="22.995283"
       y="56.012081" /></text>
<text
     xml:space="preserve"
     style="font-style:normal;font-weight:normal;font-size:12px;line-height:1.25;font-family:sans-serif;letter-spacing:0px;word-spacing:0px;fill:#000000;fill-opacity:1;stroke:none"
     x="40.094341"
     y="30.721703"
     id="text4560"><tspan
       sodipodi:role="line"
       id="tspan4558"
       x="40.094341"
       y="41.669666" /></text>
<text
     xml:space="preserve"
     style="font-style:normal;font-weight:normal;font-size:40px;line-height:1.25;font-family:sans-serif;letter-spacing:0px;word-spacing:0px;fill:#000000;fill-opacity:1;stroke:none"
     x="53.213444"
     y="1.5353785"
     id="text4564"><tspan
       sodipodi:role="line"
       id="tspan4562"
       x="53.213444"
       y="38.028591" /></text>
<text
     xml:space="preserve"
     style="font-style:normal;font-variant:normal;font-weight:normal;font-stretch:normal;font-size:30.38656807px;line-height:1.25;font-family:'Bradley Hand ITC';-inkscape-font-specification:'Bradley Hand ITC';letter-spacing:0px;word-spacing:0px;fill:#000000;fill-opacity:1;stroke:none;stroke-width:0.75966418;"
     x="35.263874"
     y="41.920906"
     id="text4568"
     transform="scale(1.2376637,0.80797392)"><tspan
       sodipodi:role="line"
       id="tspan4566"
       x="35.263874"
       y="41.920906"
       style="font-style:normal;font-variant:normal;font-weight:normal;font-stretch:normal;font-family:'Bradley Hand ITC';-inkscape-font-specification:'Bradley Hand ITC';stroke-width:0.75966418;fill:#000000;fill-opacity:1;">J</tspan></text>
<text
     xml:space="preserve"
     style="font-style:normal;font-variant:normal;font-weight:normal;font-stretch:normal;font-size:32px;line-height:1.25;font-family:'Bradley Hand ITC';-inkscape-font-specification:'Bradley Hand ITC';letter-spacing:0px;word-spacing:0px;fill:#000000;fill-opacity:1;stroke:none;"
     x="60.288918"
     y="37.797173"
     id="text4580"><tspan
       sodipodi:role="line"
       id="tspan4578"
       x="60.288918"
       y="37.797173">L</tspan></text>
<text
     xml:space="preserve"
     style="font-style:normal;font-weight:normal;font-size:18.66666603px;line-height:1.25;font-family:sans-serif;letter-spacing:0px;word-spacing:0px;fill:#000000;fill-opacity:1;stroke:none"
     x="23.732311"
     y="24.972878"
     id="text4584"><tspan
       sodipodi:role="line"
       id="tspan4582"
       x="23.732311"
       y="42.003044" /></text>
<path
     style="opacity:0.5;fill:#ffd42a;fill-opacity:1;stroke:#e5d5ff;stroke-width:0.14740565"
     d="m 38.582747,33.37247 c -2.106619,-0.747117 -3.26151,-3.531595 -2.293844,-5.530528 1.25143,-2.585109 4.392992,-3.257268 6.474994,-1.38537 0.941934,0.846879 1.381887,1.832303 1.381887,3.095197 0,1.632007 -0.771942,2.865238 -2.258473,3.608066 -1.029535,0.514464 -2.234826,0.59202 -3.304564,0.212635 z"
     id="path4686"
     inkscape:connector-curvature="0" /><path
     style="opacity:0.5;fill:#ffd42a;fill-opacity:1;stroke:#e5d5ff;stroke-width:0.14740565"
     d="m 55.646634,33.457823 c -1.28688,-0.263933 -2.424371,-1.187294 -2.989302,-2.426573 -0.418969,-0.919086 -0.372159,-2.474662 0.103171,-3.428524 1.294162,-2.597047 4.744199,-3.09516 6.704902,-0.968048 0.824483,0.894458 1.07481,1.538839 1.078069,2.77511 0.0045,1.703492 -0.756856,2.996002 -2.161384,3.669302 -0.900723,0.431787 -1.841611,0.562056 -2.735456,0.378733 z"
     id="path4688"
     inkscape:connector-curvature="0" /><path
     style="opacity:0.5;fill:#ffd42a;fill-opacity:1;stroke:#e5d5ff;stroke-width:0.14740565"
     d="m 70.416236,33.455052 c -3.299767,-0.640523 -4.509852,-4.705285 -2.09066,-7.022678 1.99023,-1.906482 5.287357,-1.315181 6.52595,1.170352 0.533756,1.071109 0.533756,2.543014 0,3.614124 -0.821555,1.648647 -2.669183,2.581024 -4.43529,2.238202 z"
     id="path4690"
     inkscape:connector-curvature="0" /><path
     style="opacity:0.5;fill:#ffcc00;fill-opacity:1;stroke:#e5d5ff;stroke-width:0.14740565"
     d="m 38.656408,33.269033 c -1.214902,-0.454572 -2.092652,-1.458927 -2.43777,-2.789391 -0.25334,-0.976653 -0.249558,-1.213236 0.0347,-2.17044 0.317172,-1.068033 1.452074,-2.214099 2.555441,-2.580579 1.847345,-0.613589 3.913333,0.256756 4.791198,2.018401 0.452637,0.908324 0.522309,2.436109 0.151669,3.325812 -0.290527,0.697395 -1.150084,1.590769 -1.909076,1.984184 -0.741375,0.384282 -2.42613,0.496389 -3.186162,0.212013 z"
     id="path4710"
     inkscape:connector-curvature="0" /><path
     style="opacity:0.5;fill:#ffcc00;fill-opacity:1;stroke:#e5d5ff;stroke-width:0.14740565"
     d="m 55.212995,33.192549 c -1.667324,-0.593687 -2.684192,-1.964072 -2.682692,-3.615337 0.0016,-1.792281 0.660774,-2.950976 2.096373,-3.685169 1.986303,-1.015833 4.477999,-0.195275 5.442192,1.792206 0.726389,1.4973 0.23934,3.881154 -0.983533,4.813884 -1.160887,0.885452 -2.607351,1.144842 -3.87234,0.694416 z"
     id="path4712"
     inkscape:connector-curvature="0" /><path
     style="opacity:0.5;fill:#ffcc00;fill-opacity:1;stroke:#e5d5ff;stroke-width:0.14740565"
     d="m 70.326425,33.308552 c -1.929976,-0.473798 -3.111441,-1.98303 -3.109745,-3.972467 0.0019,-2.208619 1.723833,-3.894232 3.959617,-3.876058 1.541801,0.01253 2.866959,0.816517 3.526151,2.139343 0.480128,0.963491 0.52458,2.50986 0.09908,3.446785 -0.74708,1.645038 -2.787658,2.676655 -4.475106,2.262397 z"
     id="path4714"
     inkscape:connector-curvature="0" /></svg>